<svg width="29" height="24" viewBox="0 0 29 24" fill="none" xmlns="http://www.w3.org/2000/svg">
<path fill-rule="evenodd" clip-rule="evenodd" d="M24.3478 0C23.8722 0 23.4624 0.335017 23.3678 0.801153L19.8782 18H4.00001C2.34315 18 1.00001 19.3431 1.00001 21C1.00001 22.6569 2.34315 24 4.00001 24C5.65686 24 7.00001 22.6569 7.00001 21C7.00001 20.6494 6.93985 20.3128 6.8293 20H18.1707C18.0602 20.3128 18 20.6494 18 21C18 22.6569 19.3432 24 21 24C22.6569 24 24 22.6569 24 21C24 19.6536 23.1131 18.5144 21.8916 18.1347L25.1653 2H28C28.5523 2 29 1.55228 29 1C29 0.447715 28.5523 0 28 0H24.3478ZM3.00001 21C3.00001 20.4477 3.44772 20 4.00001 20C4.55229 20 5.00001 20.4477 5.00001 21C5.00001 21.5523 4.55229 22 4.00001 22C3.44772 22 3.00001 21.5523 3.00001 21ZM22 21C22 21.5523 21.5523 22 21 22C20.4477 22 20 21.5523 20 21C20 20.4477 20.4477 20 21 20C21.5523 20 22 20.4477 22 21Z" fill="#C90000"/>
<path d="M1.00001 4C0.694837 4 0.406368 4.13935 0.216673 4.3784C0.0269787 4.61745 -0.0431763 4.93004 0.0261678 5.22723L2.3595 15.2272C2.46511 15.6798 2.8686 16 3.33334 16H17C17.5523 16 18 15.5523 18 15C18 14.4477 17.5523 14 17 14H4.12687L2.2602 6H20C20.5523 6 21 5.55228 21 5C21 4.44772 20.5523 4 20 4H1.00001Z" fill="#C90000"/>
</svg>
