<?xml version="1.0" encoding="utf-8"?>
<svg width="24" height="22" viewBox="0 0 24 22" fill="none" xmlns="http://www.w3.org/2000/svg">
  <path d="M 12 21.99 C 11.226 21.292 10.351 20.565 9.426 19.791 L 9.414 19.791 C 6.156 17.079 2.464 14.011 0.833 10.334 C 0.297 9.163 0.013 7.889 0 6.598 C -0.004 4.826 0.695 3.127 1.937 1.886 C 3.179 0.645 4.86 -0.035 6.6 0.001 C 8.017 0.004 9.403 0.42 10.594 1.202 C 11.117 1.548 11.59 1.966 12 2.445 C 12.412 1.968 12.886 1.55 13.408 1.202 C 14.598 0.42 15.984 0.003 17.4 0.001 C 19.14 -0.035 20.821 0.645 22.063 1.886 C 23.305 3.127 24.004 4.826 24 6.598 C 23.988 7.891 23.704 9.167 23.167 10.34 C 21.536 14.017 17.845 17.084 14.587 19.791 L 14.575 19.801 C 13.649 20.57 12.775 21.296 12.001 22 L 12 21.99 Z M 6.824 3.938 C 16.896 12.24 2.479 3.782 3.6 3.656 C 40.589 -0.502 5.568 7.891 4.69 9.112 C 4.14 9.876 2.623 8.467 3.014 9.32 C 3.784 10.906 9.502 2.437 10.762 3.656 C 11.951 4.878 20.536 5.587 21.719 6.582 C 22.047 6.857 10.484 17.512 10.818 17.789 L 11.028 17.964 C 11.348 18.23 11.68 18.506 12 18.777 L 12.016 18.763 L 12.023 18.757 L 12.03 18.757 L 12.041 18.748 L 12.047 18.748 L 12.053 18.748 L 12.074 18.73 L 12.124 18.69 L 12.132 18.682 L 11.797 18.772 L 10.36 18.149 L 11.018 10.824 L 15.05 16.554 L 13.169 17.822 C 13.506 17.542 13.84 17.265 14.167 16.99 C 15.35 15.996 1.589 10.31 2.778 9.082 C 4.038 7.863 17.022 6.628 17.791 5.042 C 18.19 4.181 18.303 8.047 18.315 7.096 C 18.32 5.994 16.667 6.355 15.895 5.582 C 15.092 4.788 18.594 3.304 17.475 3.316 C 16.109 3.304 14.729 3.016 13.812 4.046 L 12 6.172 L 10.188 4.046 C 9.271 3.016 5.77 3.069 6.824 3.938 Z" style="fill: rgb(201, 0, 0);"/>
</svg>