<svg width="24" height="22" viewBox="0 0 24 22" fill="none" xmlns="http://www.w3.org/2000/svg">
<path d="M12 21.9902C11.226 21.2915 10.3512 20.5646 9.42601 19.7913H9.41401C6.15601 17.0794 2.46362 14.0107 0.832826 10.3337C0.297048 9.16306 0.0131121 7.88942 1.36871e-05 6.59803C-0.00356446 4.82608 0.694551 3.12744 1.93659 1.88602C3.17863 0.644607 4.85976 -0.0347927 6.60001 0.00137342C8.01676 0.00365147 9.40301 0.420482 10.5936 1.20221C11.1168 1.54789 11.5901 1.96602 12 2.44458C12.4122 1.9679 12.8857 1.55001 13.4076 1.20221C14.5977 0.420328 15.9836 0.00347281 17.4 0.00137342C19.1402 -0.0347927 20.8214 0.644607 22.0634 1.88602C23.3054 3.12744 24.0036 4.82608 24 6.59803C23.9877 7.89148 23.7038 9.1673 23.1672 10.3398C21.5364 14.0168 17.8452 17.0843 14.5872 19.7913L14.5752 19.8011C13.6488 20.5695 12.7752 21.2964 12.0012 22L12 21.9902ZM6.60001 2.44458C5.48223 2.43034 4.4041 2.86584 3.60002 3.65641C2.82528 4.43111 2.39229 5.49254 2.39992 6.59803C2.41361 7.53928 2.62301 8.4669 3.01442 9.31976C3.78423 10.9063 4.82295 12.3421 6.08281 13.5612C7.27201 14.7828 8.64001 15.9653 9.8232 16.9597C10.1508 17.2345 10.4844 17.5118 10.818 17.7891L11.028 17.9638C11.3484 18.2301 11.6796 18.5062 12 18.7774L12.0156 18.7628L12.0228 18.7566H12.03L12.0408 18.7481H12.0468H12.0528L12.0744 18.7298L12.1236 18.6895L12.132 18.6821L12.1452 18.6724H12.1524L12.1632 18.6626L12.96 17.9968L13.1688 17.8221C13.506 17.5424 13.8396 17.2651 14.1672 16.9902C15.3504 15.9958 16.7196 14.8145 17.9088 13.5868C19.1688 12.3683 20.2076 10.9329 20.9772 9.34664C21.3757 8.48639 21.5881 7.54905 21.6 6.59803C21.605 5.49595 21.1722 4.43859 20.4 3.66618C19.5974 2.87204 18.5191 2.43295 17.4 2.44458C16.0343 2.43276 14.7287 3.01552 13.812 4.0461L12 6.17169L10.188 4.0461C9.27128 3.01552 7.9657 2.43276 6.60001 2.44458Z" fill="#C90000"/>
</svg>
