<svg width="23" height="23" viewBox="0 0 23 23" fill="none" xmlns="http://www.w3.org/2000/svg">
<path d="M20.2876 22.5L14.8173 17.0287C10.8422 19.8546 5.36469 19.1634 2.21635 15.4386C-0.931982 11.7137 -0.700808 6.19793 2.74816 2.74956C6.19623 -0.700315 11.7129 -0.932475 15.4387 2.21551C19.1644 5.36349 19.8561 10.8412 17.0298 14.8164L22.5 20.2877L20.2891 22.4984L20.2876 22.5ZM9.3808 3.1279C6.41582 3.12724 3.85781 5.20839 3.2555 8.11138C2.65319 11.0144 4.17212 13.9413 6.89267 15.1201C9.61321 16.2989 12.7876 15.4056 14.494 12.981C16.2004 10.5564 15.9698 7.26692 13.9417 5.10415C12.7512 3.86733 11.1068 3.12325 9.3808 3.1279Z" fill="#C90000"/>
</svg>
